<svg fill="none" height="47" viewBox="0 0 104 47" width="104" xmlns="http://www.w3.org/2000/svg"><g fill="#000"><path d="m86.1789 30.4102c-1.5912-1.4121-2.8828-3.1293-3.7983-5.0497-.9156-1.9204-1.4364-4.0049-1.5317-6.1303 0-4.17 2.23-7.15 5.33-7.15s5.33 3 5.33 7.15c-.0953 2.1254-.6161 4.2099-1.5316 6.1303-.9156 1.9204-2.2072 3.6376-3.7984 5.0497zm2.86 2.37v-.51c4-4 6-8.31 6-13 0-6.2-3.66-10.57-8.83-10.57s-8.83 4.37-8.83 10.57c0 4.74 2 9 6 13v.51c-.88 1-3.38 1.83-5.41 1.83v3.26c2.9884-.2021 5.8509-1.2804 8.23-3.1 2.3782 1.8212 5.2413 2.8997 8.23 3.1v-3.29c-2.13 0-4.59-.8-5.39-1.8z"/><path d="m70.4909 34.9898h.62v2.88h2.93v-20.36h-3.56v12.73c0 2.74-2.19 5.1-5.76 5.1-3.18 0-4.2-2.18-4.2-4.38v-13.45h-3.56v14.27c0 4.64 2.93 6.68 7 6.68 3.63-.03 5.42-1.55 6.53-3.47z"/><path d="m44.2602 25.7c-5.25 1-8.85 2.24-8.85 7 0 3.51 2.62 5.76 6.86 5.76 3.56 0 5.5099-1.34 6.8799-3.44h.6201c.0312.7869.3707 1.53.9451 2.0688.5743.5388 1.3375.8302 2.1248.8112h1.8701v-3.2701c-1.49.14-2.14-.29-2.14-1.94v-9.2099c0-4.77-3.45-6.5-7.56-6.5-5.88 0-8.6 3.24-8.65 6.94h3.57c.13-2.6 1.93-3.68 5.06-3.68 2.51 0 4 .86 4 2.56s-1.31 2.27-4.73 2.9zm4.75 4.5499c0 3.5-3.2901 5.0901-6.3601 5.0901-2.16 0-3.6799-.8401-3.6799-2.8301s1.45-3.16 5.57-4c1.5645-.2418 3.0763-.749 4.47-1.5z"/><path d="m13.4209 24.98h14.69v12.89h3.96v-12.89-3.65-11.87004h-3.96v11.87004h-14.69v-11.87004h-3.95996v11.87004 3.65 12.89h3.95996z"/></g></svg>