<svg width="458" height="281" viewBox="0 0 458 281" fill="none" xmlns="http://www.w3.org/2000/svg">
<path d="M317.13 0.349765C339.555 0.350789 361.653 5.73908 381.562 16.0611C401.471 26.3832 418.609 41.3369 431.534 59.6636C444.458 77.9903 452.791 99.1537 455.831 121.372C458.871 143.591 456.529 166.215 449.002 187.34C441.475 208.465 428.983 227.472 412.578 242.763C396.173 258.053 376.335 269.179 354.734 275.203C333.132 281.228 310.4 281.975 288.449 277.382C266.499 272.789 245.973 262.99 228.6 248.81C244.684 235.68 257.647 219.137 266.55 200.379C275.452 181.621 280.07 161.118 280.07 140.355C280.07 119.592 275.452 99.0884 266.55 80.3304C257.647 61.5725 244.684 45.0295 228.6 31.8998C253.568 11.4524 284.857 0.301605 317.13 0.349765Z" fill="#083F4D"/>
<path d="M228.6 31.9398C244.685 45.0695 257.648 61.6125 266.55 80.3705C275.452 99.1285 280.07 119.632 280.07 140.395C280.07 161.158 275.452 181.661 266.55 200.419C257.648 219.177 244.685 235.72 228.6 248.85C212.515 235.72 199.552 219.177 190.65 200.419C181.748 181.661 177.13 161.158 177.13 140.395C177.13 119.632 181.748 99.1285 190.65 80.3705C199.552 61.6125 212.515 45.0695 228.6 31.9398Z" fill="#C0FF00"/>
<path d="M228.6 31.9397C212.515 45.0694 199.552 61.6124 190.65 80.3704C181.748 99.1284 177.13 119.632 177.13 140.395C177.13 161.158 181.748 181.661 190.65 200.419C199.552 219.177 212.515 235.72 228.6 248.85C208.08 265.6 183.229 276.185 156.933 279.375C130.638 282.566 103.976 278.231 80.0459 266.874C56.1155 255.517 35.898 237.605 21.7415 215.216C7.5849 192.828 0.0703125 166.883 0.0703125 140.395C0.0703125 113.906 7.5849 87.9612 21.7415 65.573C35.898 43.1847 56.1155 25.272 80.0459 13.9152C103.976 2.55834 130.638 -1.77652 156.933 1.41402C183.229 4.60456 208.08 15.1896 228.6 31.9397Z" fill="#9BC8FF"/>
</svg>
