<svg width="124" height="204" viewBox="0 0 124 204" fill="none" xmlns="http://www.w3.org/2000/svg">
<path d="M61.95 151.96C38.7 130.09 24.86 101.3 24.86 74.1698C24.86 45.0998 40.36 24.3398 61.95 24.3398C83.5399 24.3398 99.04 45.0598 99.04 74.1298C99.04 101.26 85.21 130.05 61.95 151.96ZM81.61 168.29V164.69C109.61 136.69 123.41 106.83 123.41 74.1698C123.41 30.9798 97.94 0.529785 61.95 0.529785C25.9599 0.529785 0.5 30.9798 0.5 74.1698C0.5 107.11 14.34 137.01 42.3 164.69V168.29C36.21 175.21 18.77 181.02 4.64996 181.02V203.72C21.81 203.72 48.11 193.72 61.95 182.13C75.7899 193.76 102.09 203.72 119.26 203.72V180.96C104.58 180.96 87.42 175.17 81.61 168.25V168.29Z" fill="black"/>
</svg>
