<svg width="135" height="150" viewBox="0 0 135 150" fill="none" xmlns="http://www.w3.org/2000/svg">
<path d="M62.1291 61.1602C25.6091 68.0802 0.539062 76.7301 0.539062 109.65C0.539062 134.1 18.7591 149.77 48.2891 149.77C73.0491 149.77 86.629 140.43 96.149 125.77H100.489C102.339 139.23 110.589 145.87 121.879 145.87H134.879V123.06C124.479 124.06 119.999 121.06 119.999 109.59V45.4602C119.999 12.2702 95.9991 0.220215 67.3791 0.220215C26.4391 0.220215 7.50906 22.7602 7.15906 48.5002H31.959C32.879 30.5002 45.3991 22.9002 67.2391 22.9002C84.6991 22.9002 95.2391 28.9002 95.2391 40.7502C95.2391 52.6002 85.9191 56.7402 62.1291 61.1602ZM95.199 92.8002C95.199 117.18 72.2991 128.29 50.9291 128.29C35.9291 128.29 25.3391 122.38 25.3391 108.55C25.3391 94.4802 35.3991 86.5501 64.0591 80.7802C79.0591 77.7802 87.999 74.6102 95.199 70.3102V92.8002Z" fill="black"/>
</svg>
