<svg width="600" height="215" viewBox="0 0 600 215" fill="none" xmlns="http://www.w3.org/2000/svg">
<path d="M532.08 154.57C509.26 133.11 495.68 104.86 495.68 78.24C495.68 49.72 510.89 29.35 532.08 29.35C553.27 29.35 568.48 49.72 568.48 78.24C568.48 104.87 554.89 133.12 532.08 154.57ZM551.36 170.57V167.07C578.8 139.64 592.36 110.3 592.36 78.25C592.36 35.88 567.36 6 532.06 6C496.76 6 471.8 35.88 471.8 78.25C471.8 110.58 485.39 139.91 512.8 167.07V170.57C506.8 177.36 489.71 183.06 475.86 183.06V205.37C492.7 205.37 518.5 195.6 532.09 184.19C545.67 195.6 571.47 205.37 588.31 205.37V183.1C573.91 183.1 557.07 177.4 551.36 170.57Z" fill="#C0FF00"/>
<path d="M424.89 185.86H429.16V205.57H448.8V66.46H424.48V153.46C424.48 172.14 409.56 188.29 385.13 188.29C363.41 188.29 356.47 173.38 356.47 158.35V66.46H332.13V163.78C332.13 195.43 352.13 209.38 379.83 209.38C405.12 209.38 417.3 199.03 424.89 185.86Z" fill="black"/>
<path d="M245.72 122.44C209.89 129.23 185.29 137.72 185.29 170.02C185.29 194.02 203.17 209.38 232.15 209.38C256.44 209.38 269.77 200.22 279.15 185.86H283.41C285.22 199.06 293.32 205.58 304.41 205.58H317.17V183.19C306.97 184.19 302.57 181.27 302.57 169.97V107.05C302.57 74.49 279.01 62.66 250.94 62.66C210.76 62.66 192.19 84.78 191.85 110.03H216.18C217.09 92.34 229.37 84.91 250.8 84.91C267.93 84.91 278.24 90.8 278.24 102.43C278.24 114.06 269.07 118.1 245.72 122.44ZM278.18 153.44C278.18 177.36 255.7 188.26 234.73 188.26C220 188.26 209.63 182.46 209.63 168.89C209.63 155.09 219.5 147.28 247.63 141.64C262.3 138.64 271.12 135.58 278.19 131.37L278.18 153.44Z" fill="black"/>
<path d="M35.04 117.49H135.42V205.58H162.46V117.49V92.61V11.5H135.42V92.61H35.04V11.5H8V92.61V117.49V205.58H35.04V117.49Z" fill="black"/>
</svg>
