<?xml version="1.0" encoding="UTF-8"?><svg id="_レイヤー_3" xmlns="http://www.w3.org/2000/svg" viewBox="0 0 408.76501 1602.67993"><defs><style>.cls-1{fill:none;stroke:#c0ff00;stroke-miterlimit:10;stroke-width:49px;}</style></defs><path class="cls-1" d="M147.36005,24.5c119.88503,0,236.90497,118.57251,236.90497,233.59998,0,115.02747-117.01994,233.59998-236.90497,233.59998-70,0-122.86005-39.32004-122.86005-97.7074v-.16515c0-58.38736,52.86005-97.7074,122.86005-97.7074,119.88503,0,236.90497,118.57251,236.90497,233.59998s-117.01994,233.59998-236.90497,233.59998c-70,0-122.86005-39.32004-122.86005-97.7074v-.16515c0-58.38736,52.86005-97.7074,122.86005-97.7074,119.88503,0,236.90497,118.57251,236.90497,233.59998,0,115.02747-117.01994,233.59998-236.90497,233.59998-70,0-122.86005-39.32004-122.86005-97.7074v-.16515c0-58.38736,52.86005-97.7074,122.86005-97.7074,119.88503,0,236.90497,118.57251,236.90497,233.59998s-117.01994,233.59998-236.90497,233.59998c-70,0-122.86005-39.32004-122.86005-97.7074v-.16515c0-58.38736,52.86005-97.7074,122.86005-97.7074,119.88503,0,236.90497,118.57251,236.90497,233.59998,0,115.02747-117.01994,233.59998-236.90497,233.59998"/></svg>