<svg width="335" height="215" viewBox="0 0 335 215" fill="none" xmlns="http://www.w3.org/2000/svg">
<rect width="335" height="215" fill="#C0FF00"/>
<g clip-path="url(#clip0_321_1122)">
<path d="M223.302 157.326V154.3C242.353 135.556 252.823 119.967 252.823 91.1562C252.823 63.7346 236.579 36.5391 211.595 36.5391C186.61 36.5391 170.356 63.7346 170.356 91.1562C170.356 119.967 180.826 135.556 199.876 154.3V157.315C192.138 162.224 182.448 167.005 167.762 167.005C153.077 167.005 143.397 162.278 135.649 157.315V154.3C154.71 135.556 165.18 119.967 165.18 91.1562C165.18 63.7346 148.936 36.5391 123.941 36.5391C98.9456 36.5391 82.7019 63.7346 82.7019 91.1562C82.7019 119.967 93.1717 135.556 112.233 154.3V157.315C104.485 162.224 94.7939 167.005 80.1191 167.005V179.03C96.128 179.03 113.204 173.647 123.941 165.583C134.613 173.701 151.807 179.03 167.762 179.03C183.718 179.03 200.847 173.647 211.595 165.583C222.267 173.701 239.461 179.03 255.416 179.03V167.005C240.731 166.961 231.04 162.235 223.302 157.326ZM123.941 146.936C106.214 130.173 97.4727 114.465 97.4727 91.167C97.4727 67.8688 109.565 51.4934 123.898 51.4934C138.231 51.4934 150.323 67.8042 150.323 91.167C150.323 114.53 141.668 130.173 123.941 146.936ZM211.595 146.936C193.867 130.173 185.159 114.476 185.159 91.167C185.159 67.8581 197.251 51.4934 211.595 51.4934C225.938 51.4934 238.02 67.8042 238.02 91.167C238.02 114.53 229.311 130.173 211.595 146.936Z" fill="black"/>
<path d="M238.02 91.0597V91.1673C238.105 98.3544 237.108 105.513 235.064 112.398C224.65 112.795 214.221 112.436 203.857 111.322C204.941 104.27 205.537 97.1507 205.64 90.0154C216.395 91.1391 227.216 91.488 238.02 91.0597Z" fill="white"/>
<path d="M139.982 112.312C134.835 113.922 129.567 115.106 124.229 115.854C116.675 116.399 109.089 116.309 101.55 115.585C98.9326 108.312 97.5752 100.638 97.5371 92.9006C106.385 93.9772 119.523 94.494 126.353 93.7296C129.372 93.3734 132.369 92.8451 135.329 92.147C135.854 99.0683 137.423 105.868 139.982 112.312Z" fill="white"/>
<path d="M203.858 111.29C199.249 110.834 194.708 109.84 190.325 108.329C190.444 107.281 190.243 106.222 189.749 105.293C189.072 104.12 188.254 103.035 187.316 102.063C184.669 99.0805 174.786 89.7032 170.891 88.6804C168.308 88.0022 163.719 91.6842 161.424 92.9869C160.928 93.2669 160.406 93.4976 159.866 93.6759C160.677 92.4916 161.435 90.5968 160.816 89.0896C160.521 88.555 160.051 88.1408 159.485 87.9187C158.92 87.6966 158.296 87.6805 157.721 87.873C160.186 85.4414 163.04 83.4466 166.163 81.9729C167.35 81.393 168.629 81.0286 169.941 80.8963C178.169 80.3795 182.748 85.4721 186.152 86.6456C190.091 87.9914 197.348 89.1971 205.662 90.0476C205.55 97.1619 204.947 104.26 203.858 111.29Z" fill="white"/>
<path d="M159.833 93.5895C158.243 94.0955 156.962 93.8478 156.375 92.8681C155.415 91.2855 155.724 89.8644 157.688 87.7865C158.264 87.594 158.888 87.6102 159.453 87.8323C160.018 88.0544 160.488 88.4685 160.783 89.0031C161.402 90.5103 160.644 92.4052 159.833 93.5895Z" fill="white"/>
<path d="M186.054 106.929C185.998 107.433 186.067 107.944 186.253 108.415C186.439 108.886 186.737 109.304 187.121 109.632C186.311 109.416 185.537 109.078 184.827 108.63C184.581 108.469 184.24 108.221 183.823 107.92C183.093 108.008 182.412 108.333 181.88 108.845C181.349 109.358 180.997 110.03 180.878 110.762C180.878 111.419 181.945 111.839 182.447 111.914C181.298 111.965 180.154 111.744 179.106 111.268C177.879 113.184 175.712 113.217 173.129 112.732C172.062 114.326 169.928 114.509 167.676 113.992C165.723 113.299 163.813 112.49 161.955 111.569C160.216 110.751 158.295 109.814 156.523 108.91C155.456 108.35 154.388 107.834 153.471 107.295C152.788 107.672 151.891 108.092 150.824 108.544C148.049 109.696 144.143 111.042 140.023 112.269C137.45 105.828 135.87 99.0277 135.338 92.104C138.916 91.3575 142.418 90.2762 145.797 88.8742C149.853 86.7209 155.509 81.4778 160.344 80.8318C162.351 80.4234 164.437 80.8089 166.171 81.9084C163.048 83.3821 160.194 85.3767 157.729 87.8083C155.765 89.8862 155.456 91.3073 156.416 92.8899C157.003 93.8697 158.284 94.1173 159.874 93.6113C160.414 93.4331 160.936 93.2023 161.432 92.9223C163.727 91.6519 168.316 87.9698 170.899 88.6158C174.794 89.6924 184.677 99.016 187.324 101.998C188.263 102.971 189.08 104.055 189.757 105.228C189.041 105.089 188.3 105.177 187.636 105.482C186.973 105.787 186.42 106.293 186.054 106.929Z" fill="white"/>
<path d="M190.324 108.329C190.324 108.985 189.652 109.545 188.979 109.76C188.359 109.897 187.713 109.86 187.111 109.653C186.727 109.325 186.429 108.908 186.243 108.436C186.057 107.965 185.989 107.455 186.044 106.95C186.413 106.33 186.962 105.838 187.617 105.542C188.271 105.246 189 105.158 189.705 105.292C190.214 106.217 190.43 107.277 190.324 108.329Z" fill="white"/>
<path d="M184.42 111.289C183.849 111.747 183.131 111.977 182.403 111.935C181.955 111.828 180.823 111.44 180.834 110.783C180.954 110.052 181.306 109.379 181.837 108.866C182.368 108.354 183.05 108.029 183.78 107.941C184.196 108.242 184.537 108.49 184.783 108.652C185.004 109.074 185.087 109.556 185.022 110.029C184.957 110.503 184.747 110.943 184.42 111.289Z" fill="white"/>
<path d="M156.483 108.932C155.842 109.343 155.334 109.934 155.021 110.633C152.609 111.462 150.752 110.267 150.752 108.566C151.819 108.113 152.716 107.693 153.399 107.317C154.338 107.823 155.384 108.372 156.483 108.932Z" fill="white"/>
<path d="M161.913 111.591C161.693 111.878 161.51 112.193 161.369 112.528C160.419 113.453 157.42 114.465 155.851 113.733C154.944 113.313 154.421 112.151 155.019 110.633C155.332 109.934 155.84 109.343 156.481 108.932C158.306 109.836 160.174 110.773 161.913 111.591Z" fill="white"/>
<path d="M167.632 114.013C166.33 115.596 164.174 116.479 162.563 115.736C161.495 115.252 161.132 114.024 161.367 112.506C161.508 112.172 161.691 111.857 161.912 111.57C163.769 112.498 165.679 113.314 167.632 114.013Z" fill="white"/>
<path d="M235.053 112.398C224.639 112.79 214.21 112.43 203.847 111.321C199.231 110.864 194.683 109.87 190.293 108.361C190.409 107.312 190.204 106.252 189.706 105.325C189.032 104.149 188.214 103.064 187.272 102.095C186.877 101.653 186.322 101.018 185.65 100.383C181.819 96.4963 174.166 89.6166 170.858 88.7014C170.703 88.665 170.546 88.6399 170.388 88.6261C168.926 88.5292 166.984 89.5089 165.169 90.6071C163.718 91.4899 162.352 92.4482 161.391 92.9865C160.901 93.2676 160.382 93.495 159.844 93.6648C158.254 94.1816 156.962 93.9339 156.375 92.9434C155.415 91.3608 155.724 89.9504 157.688 87.8618C159.756 85.8234 162.094 84.0842 164.636 82.6939C165.137 82.4248 165.628 82.1772 166.13 81.9619C167.314 81.3834 168.589 81.019 169.897 80.8853C170.314 80.8853 170.719 80.8853 171.114 80.8853C178.019 80.8853 182.192 84.8795 185.351 86.3545C185.618 86.4729 185.874 86.5806 186.12 86.6667C190.058 88.0125 197.305 89.2182 205.629 90.0688C216.383 91.2199 227.205 91.5797 238.01 91.1454" stroke="black" stroke-linejoin="bevel"/>
<path d="M166.129 81.8865C165.616 81.5131 165.041 81.2326 164.432 81.0575C163.088 80.6835 161.681 80.5992 160.302 80.8099C157.1 81.2406 153.418 83.7706 150.163 86.0315C148.753 87.0593 147.281 87.9978 145.755 88.8415C142.376 90.2532 138.87 91.3348 135.286 92.0714C132.327 92.7747 129.33 93.3032 126.31 93.6541C119.512 94.4185 106.374 93.8479 97.4941 92.8251" stroke="black" stroke-linejoin="bevel"/>
<path d="M101.541 115.542C109.08 116.266 116.666 116.356 124.22 115.811C129.561 115.062 134.833 113.878 139.984 112.269C142.951 111.386 145.8 110.45 148.202 109.556C149.141 109.211 150.005 108.867 150.774 108.544C151.678 108.182 152.562 107.768 153.42 107.306C154.328 107.812 155.373 108.383 156.473 108.921C158.244 109.825 160.165 110.762 161.916 111.569L162.887 112.022C164.432 112.77 166.018 113.432 167.636 114.002L167.978 114.078C169.963 114.476 171.799 114.282 172.877 113.001C172.957 112.919 173.028 112.829 173.09 112.732C175.673 113.217 177.829 113.184 179.067 111.279C180.108 111.752 181.245 111.97 182.386 111.914C183.115 111.952 183.834 111.727 184.414 111.279C184.74 110.933 184.952 110.493 185.019 110.02C185.086 109.547 185.005 109.065 184.787 108.641C185.502 109.08 186.275 109.417 187.082 109.642L187.37 109.707C187.888 109.84 188.431 109.84 188.949 109.707C189.611 109.502 190.294 108.942 190.294 108.286" stroke="black" stroke-linejoin="bevel"/>
<path d="M184.783 108.651C182.83 107.305 174.815 101.406 172.393 99.1663" stroke="black" stroke-linejoin="bevel"/>
<path d="M179.063 111.29C177.184 110.547 169.095 104.625 166.971 102.601" stroke="black" stroke-linejoin="bevel"/>
<path d="M173.088 112.754C169.199 111.022 165.638 108.621 162.564 105.659" stroke="black" stroke-linejoin="bevel"/>
<path d="M150.837 108.565C150.751 110.266 152.662 111.461 155.106 110.632C154.508 112.151 155.031 113.313 155.938 113.733C157.496 114.465 160.517 113.453 161.467 112.527C161.221 114.024 161.573 115.251 162.651 115.757C164.263 116.5 166.771 115.693 168.073 114.11" stroke="black" stroke-linejoin="bevel"/>
<path d="M155.018 110.633C155.331 109.934 155.839 109.343 156.48 108.932" stroke="black" stroke-linejoin="bevel"/>
<path d="M161.381 112.527C161.514 112.191 161.694 111.876 161.915 111.591" stroke="black" stroke-linejoin="bevel"/>
<path d="M157.689 87.7865C158.265 87.594 158.889 87.6102 159.454 87.8323C160.019 88.0544 160.49 88.4685 160.785 89.0031C161.404 90.5103 160.656 92.4052 159.835 93.5895" stroke="black" stroke-linejoin="bevel"/>
<path d="M187.123 109.653C186.739 109.325 186.441 108.908 186.255 108.436C186.068 107.965 186 107.455 186.056 106.95C186.424 106.329 186.973 105.836 187.627 105.54C188.282 105.243 189.012 105.157 189.717 105.292" stroke="black" stroke-linejoin="bevel"/>
<path d="M182.424 111.935C181.987 111.838 180.823 111.451 180.834 110.783C180.951 110.051 181.302 109.378 181.834 108.867C182.366 108.356 183.049 108.034 183.78 107.952" stroke="black" stroke-linejoin="bevel"/>
<path d="M135.299 92.1252C135.831 99.0489 137.411 105.849 139.984 112.29" stroke="black" stroke-linejoin="bevel"/>
<path d="M205.64 89.9937C205.532 97.1251 204.936 104.241 203.857 111.289" stroke="black" stroke-linejoin="bevel"/>
</g>
<defs>
<clipPath id="clip0_321_1122">
<rect width="175.297" height="142.438" fill="white" transform="translate(80.1191 36.55)"/>
</clipPath>
</defs>
</svg>
