<svg width="623" height="400" viewBox="0 0 623 400" fill="none" xmlns="http://www.w3.org/2000/svg">
<rect width="623" height="400" fill="#C0FF00"/>
<g clip-path="url(#clip0_321_319)">
<path d="M415.278 292.699V287.07C450.706 252.198 470.177 223.194 470.177 169.593C470.177 118.576 439.969 67.9797 393.505 67.9797C347.041 67.9797 316.813 118.576 316.813 169.593C316.813 223.194 336.284 252.198 371.712 287.07V292.679C357.322 301.813 339.301 310.706 311.99 310.706C284.68 310.706 266.678 301.913 252.268 292.679V287.07C287.716 252.198 307.187 223.194 307.187 169.593C307.187 118.576 276.979 67.9797 230.495 67.9797C184.012 67.9797 153.803 118.576 153.803 169.593C153.803 223.194 173.274 252.198 208.722 287.07V292.679C194.313 301.813 176.291 310.706 149 310.706V333.08C178.772 333.08 210.528 323.065 230.495 308.062C250.343 323.165 282.318 333.08 311.99 333.08C341.663 333.08 373.518 323.065 393.505 308.062C413.353 323.165 445.328 333.08 475 333.08V310.706C447.689 310.626 429.668 301.833 415.278 292.699ZM230.495 273.37C197.528 242.183 181.273 212.959 181.273 169.613C181.273 126.268 203.76 95.8018 230.416 95.8018C257.071 95.8018 279.559 126.148 279.559 169.613C279.559 213.079 263.462 242.183 230.495 273.37ZM393.505 273.37C360.538 242.183 344.342 212.979 344.342 169.613C344.342 126.248 366.83 95.8018 393.505 95.8018C420.18 95.8018 442.648 126.148 442.648 169.613C442.648 213.079 426.452 242.183 393.505 273.37Z" fill="black"/>
<path d="M442.65 169.413V169.613C442.807 182.985 440.954 196.303 437.152 209.113C417.785 209.852 398.389 209.182 379.117 207.11C381.133 193.99 382.24 180.745 382.432 167.47C402.433 169.561 422.557 170.21 442.65 169.413Z" fill="white"/>
<path d="M260.327 208.953C250.755 211.947 240.958 214.151 231.032 215.543C216.984 216.557 202.876 216.389 188.855 215.042C183.988 201.51 181.463 187.234 181.393 172.838C197.846 174.841 222.279 175.803 234.982 174.38C240.596 173.718 246.169 172.735 251.674 171.436C252.651 184.313 255.569 196.964 260.327 208.953Z" fill="white"/>
<path d="M379.114 207.05C370.543 206.202 362.097 204.353 353.947 201.542C354.168 199.593 353.795 197.622 352.876 195.893C351.616 193.711 350.096 191.693 348.35 189.884C343.428 184.336 325.049 166.889 317.805 164.987C313.001 163.725 304.467 170.575 300.2 172.999C299.277 173.52 298.307 173.949 297.302 174.28C298.81 172.077 300.219 168.552 299.068 165.748C298.52 164.753 297.645 163.983 296.594 163.569C295.544 163.156 294.383 163.126 293.312 163.484C297.897 158.96 303.204 155.249 309.012 152.508C311.219 151.429 313.598 150.751 316.038 150.505C331.341 149.543 339.856 159.018 346.187 161.201C353.511 163.705 367.007 165.948 382.469 167.53C382.26 180.766 381.139 193.971 379.114 207.05Z" fill="white"/>
<path d="M297.244 174.12C294.287 175.061 291.905 174.6 290.814 172.778C289.027 169.833 289.603 167.189 293.255 163.323C294.325 162.965 295.486 162.996 296.537 163.409C297.588 163.822 298.462 164.592 299.011 165.587C300.162 168.391 298.753 171.916 297.244 174.12Z" fill="white"/>
<path d="M346.008 198.938C345.905 199.876 346.031 200.825 346.378 201.702C346.724 202.579 347.279 203.356 347.993 203.965C346.486 203.564 345.047 202.936 343.726 202.103C343.269 201.802 342.634 201.342 341.86 200.781C340.503 200.945 339.235 201.549 338.247 202.502C337.259 203.456 336.604 204.707 336.382 206.069C336.382 207.291 338.367 208.072 339.3 208.212C337.164 208.307 335.036 207.895 333.087 207.01C330.805 210.575 326.776 210.636 321.973 209.734C319.988 212.699 316.018 213.039 311.83 212.078C308.199 210.789 304.646 209.284 301.192 207.571C297.957 206.049 294.384 204.306 291.089 202.623C289.105 201.582 287.12 200.62 285.413 199.619C284.143 200.32 282.475 201.101 280.491 201.942C275.33 204.086 268.066 206.589 260.405 208.873C255.619 196.89 252.681 184.237 251.691 171.356C258.346 169.967 264.858 167.956 271.142 165.347C278.685 161.341 289.204 151.586 298.195 150.385C301.928 149.625 305.808 150.342 309.032 152.388C303.224 155.129 297.916 158.84 293.332 163.364C289.68 167.23 289.104 169.874 290.891 172.818C291.982 174.641 294.364 175.102 297.321 174.16C298.326 173.829 299.297 173.399 300.219 172.878C304.487 170.515 313.021 163.665 317.824 164.866C325.069 166.869 343.448 184.216 348.37 189.764C350.116 191.573 351.635 193.591 352.895 195.773C351.564 195.514 350.185 195.679 348.951 196.246C347.717 196.813 346.688 197.754 346.008 198.938Z" fill="white"/>
<path d="M353.947 201.542C353.947 202.763 352.697 203.805 351.446 204.206C350.292 204.46 349.091 204.391 347.973 204.005C347.259 203.396 346.704 202.619 346.358 201.742C346.011 200.865 345.885 199.916 345.988 198.978C346.675 197.823 347.695 196.909 348.912 196.357C350.13 195.806 351.485 195.644 352.796 195.893C353.742 197.613 354.144 199.584 353.947 201.542Z" fill="white"/>
<path d="M342.974 207.05C341.912 207.902 340.577 208.33 339.223 208.252C338.389 208.051 336.285 207.33 336.305 206.108C336.527 204.747 337.182 203.496 338.17 202.542C339.157 201.589 340.425 200.984 341.783 200.82C342.557 201.381 343.192 201.842 343.649 202.142C344.059 202.929 344.215 203.825 344.094 204.706C343.973 205.586 343.581 206.406 342.974 207.05Z" fill="white"/>
<path d="M291.01 202.663C289.818 203.429 288.873 204.529 288.291 205.828C283.805 207.37 280.352 205.147 280.352 201.982C282.336 201.141 284.004 200.36 285.274 199.659C287.021 200.6 288.965 201.622 291.01 202.663Z" fill="white"/>
<path d="M301.113 207.611C300.703 208.145 300.363 208.731 300.101 209.353C298.334 211.076 292.757 212.959 289.839 211.597C288.152 210.816 287.18 208.652 288.291 205.828C288.873 204.529 289.818 203.429 291.01 202.663C294.404 204.346 297.878 206.088 301.113 207.611Z" fill="white"/>
<path d="M311.75 212.118C309.329 215.062 305.32 216.705 302.323 215.323C300.338 214.422 299.663 212.138 300.1 209.314C300.362 208.692 300.702 208.106 301.112 207.571C304.566 209.298 308.118 210.816 311.75 212.118Z" fill="white"/>
<path d="M437.131 209.113C417.764 209.841 398.369 209.172 379.096 207.11C370.512 206.259 362.054 204.41 353.89 201.601C354.106 199.65 353.725 197.679 352.798 195.953C351.545 193.767 350.025 191.748 348.273 189.944C347.539 189.123 346.506 187.941 345.256 186.759C338.131 179.528 323.9 166.729 317.747 165.026C317.46 164.958 317.168 164.912 316.874 164.886C314.155 164.706 310.542 166.528 307.168 168.571C304.469 170.214 301.928 171.997 300.142 172.998C299.23 173.521 298.265 173.944 297.264 174.26C294.307 175.222 291.905 174.761 290.814 172.918C289.027 169.974 289.603 167.35 293.255 163.464C297.101 159.672 301.449 156.436 306.176 153.849C307.109 153.349 308.022 152.888 308.954 152.487C311.156 151.411 313.527 150.733 315.961 150.484C316.735 150.484 317.489 150.484 318.223 150.484C331.065 150.484 338.825 157.916 344.7 160.66C345.197 160.88 345.673 161.08 346.129 161.241C353.453 163.744 366.93 165.988 382.411 167.57C402.409 169.712 422.535 170.381 442.629 169.573" stroke="black" stroke-width="2" stroke-linejoin="bevel"/>
<path d="M308.952 152.347C307.996 151.652 306.928 151.13 305.796 150.805C303.296 150.109 300.679 149.952 298.115 150.344C292.16 151.145 285.313 155.852 279.259 160.059C276.637 161.971 273.899 163.717 271.062 165.286C264.777 167.913 258.257 169.925 251.592 171.296C246.089 172.604 240.516 173.587 234.9 174.24C222.257 175.662 197.824 174.601 181.311 172.698" stroke="black" stroke-width="2" stroke-linejoin="bevel"/>
<path d="M188.836 214.962C202.857 216.309 216.964 216.477 231.012 215.463C240.945 214.069 250.749 211.865 260.328 208.873C265.845 207.23 271.145 205.487 275.611 203.825C277.357 203.184 278.965 202.543 280.394 201.942C282.076 201.268 283.719 200.499 285.316 199.639C287.003 200.58 288.948 201.642 290.993 202.643C294.287 204.326 297.86 206.069 301.115 207.571L302.921 208.412C305.795 209.805 308.744 211.036 311.753 212.097L312.388 212.238C316.08 212.979 319.494 212.618 321.499 210.235C321.648 210.082 321.78 209.914 321.896 209.734C326.699 210.635 330.708 210.575 333.01 207.03C334.946 207.911 337.062 208.316 339.183 208.212C340.539 208.282 341.876 207.863 342.954 207.03C343.562 206.387 343.956 205.568 344.08 204.689C344.205 203.809 344.054 202.912 343.649 202.122C344.979 202.939 346.415 203.566 347.916 203.985L348.452 204.105C349.416 204.353 350.426 204.353 351.389 204.105C352.62 203.725 353.89 202.683 353.89 201.461" stroke="black" stroke-width="2" stroke-linejoin="bevel"/>
<path d="M343.649 202.142C340.017 199.638 325.111 188.662 320.605 184.495" stroke="black" stroke-width="2" stroke-linejoin="bevel"/>
<path d="M333.007 207.05C329.514 205.668 314.469 194.651 310.52 190.885" stroke="black" stroke-width="2" stroke-linejoin="bevel"/>
<path d="M321.894 209.775C314.662 206.553 308.04 202.086 302.324 196.574" stroke="black" stroke-width="2" stroke-linejoin="bevel"/>
<path d="M280.513 201.982C280.354 205.147 283.907 207.37 288.452 205.828C287.341 208.652 288.313 210.815 290 211.597C292.898 212.959 298.515 211.076 300.281 209.353C299.825 212.137 300.48 214.421 302.484 215.362C305.481 216.744 310.146 215.242 312.567 212.298" stroke="black" stroke-width="2" stroke-linejoin="bevel"/>
<path d="M288.293 205.828C288.875 204.529 289.82 203.429 291.012 202.663" stroke="black" stroke-width="2" stroke-linejoin="bevel"/>
<path d="M300.121 209.353C300.368 208.728 300.702 208.141 301.113 207.611" stroke="black" stroke-width="2" stroke-linejoin="bevel"/>
<path d="M293.254 163.323C294.324 162.965 295.485 162.996 296.536 163.409C297.587 163.822 298.462 164.592 299.01 165.587C300.161 168.391 298.772 171.916 297.243 174.12" stroke="black" stroke-width="2" stroke-linejoin="bevel"/>
<path d="M347.996 204.005C347.282 203.396 346.727 202.619 346.381 201.742C346.035 200.865 345.908 199.916 346.012 198.978C346.696 197.821 347.716 196.905 348.934 196.353C350.152 195.801 351.508 195.641 352.819 195.893" stroke="black" stroke-width="2" stroke-linejoin="bevel"/>
<path d="M339.262 208.252C338.448 208.071 336.285 207.35 336.305 206.108C336.522 204.747 337.175 203.494 338.164 202.543C339.154 201.592 340.425 200.994 341.783 200.84" stroke="black" stroke-width="2" stroke-linejoin="bevel"/>
<path d="M251.613 171.396C252.602 184.277 255.541 196.929 260.326 208.912" stroke="black" stroke-width="2" stroke-linejoin="bevel"/>
<path d="M382.432 167.43C382.23 180.698 381.123 193.936 379.117 207.05" stroke="black" stroke-width="2" stroke-linejoin="bevel"/>
</g>
<defs>
<clipPath id="clip0_321_319">
<rect width="326" height="265" fill="white" transform="translate(149 68)"/>
</clipPath>
</defs>
</svg>
