<svg width="335" height="215" viewBox="0 0 335 215" fill="none" xmlns="http://www.w3.org/2000/svg">
<rect width="335" height="215" fill="#C0FF00"/>
<g clip-path="url(#clip0_321_1075)">
<path d="M183.199 147.454L166.83 153.302L171.619 169.456C172.004 170.607 172.744 171.601 173.73 172.288C174.716 172.976 175.894 173.321 177.089 173.272H188.55C188.55 171.269 187.742 169.066 186.717 168.395C185.899 167.864 183.681 168.074 183.12 167.664C182.558 167.253 182.055 164.429 182.558 163.117C183.061 161.805 185.8 159.952 187.19 159.632L183.199 147.454Z" fill="white"/>
<path d="M183.199 147.454L166.83 153.302L171.619 169.456C172.004 170.607 172.744 171.601 173.73 172.288C174.716 172.976 175.894 173.321 177.089 173.272H188.55C188.55 171.269 187.742 169.066 186.717 168.395C185.899 167.864 183.681 168.074 183.12 167.664C182.558 167.253 182.055 164.429 182.558 163.117C183.061 161.805 185.8 159.952 187.19 159.632L183.199 147.454Z" stroke="black" stroke-linejoin="bevel"/>
<path d="M178.29 158.24C179.809 158.24 181.04 156.989 181.04 155.446C181.04 153.903 179.809 152.652 178.29 152.652C176.772 152.652 175.541 153.903 175.541 155.446C175.541 156.989 176.772 158.24 178.29 158.24Z" stroke="black" stroke-linejoin="bevel"/>
<path d="M169.975 152.181L174.557 167.604C175.099 169.316 176.41 170.077 178.292 170.077L187.989 170.278" stroke="black" stroke-linejoin="bevel"/>
<path d="M207.509 119.713L197.99 139.552L182.025 147.083L187.987 165.751L211.845 155.095L226.243 134.765L207.509 119.713Z" fill="white"/>
<path d="M207.509 119.713L197.99 139.552L182.025 147.083L187.987 165.751L211.845 155.095L226.243 134.765L207.509 119.713Z" stroke="black" stroke-linejoin="bevel"/>
<path d="M187.498 144.5L193.756 163.177" stroke="black" stroke-linejoin="bevel"/>
<path d="M217.11 127.425L205.176 147.494L190.631 153.844" stroke="black" stroke-linejoin="bevel"/>
<path d="M238.561 158.33V173.272H267.977C267.977 171.059 267.188 168.595 265.503 167.523C264.123 166.652 257.619 165.931 256.033 165.23C253.51 164.098 252.505 162.176 252.505 158.33H238.561Z" fill="white"/>
<path d="M244.841 167.984C246.36 167.984 247.591 166.734 247.591 165.19C247.591 163.647 246.36 162.396 244.841 162.396C243.323 162.396 242.092 163.647 242.092 165.19C242.092 166.734 243.323 167.984 244.841 167.984Z" stroke="black" stroke-linejoin="bevel"/>
<path d="M238.561 158.33V173.272H267.977C267.977 171.059 267.188 168.595 265.503 167.523C264.123 166.652 257.619 165.931 256.033 165.23C253.51 164.098 252.505 162.176 252.505 158.33H238.561Z" stroke="black" stroke-linejoin="bevel"/>
<path d="M238.561 170.458H267.553" stroke="black" stroke-linejoin="bevel"/>
<path d="M211.748 103.449L249.935 124.099L257.306 161.274H237.863L232.857 138.701C219.878 135.146 207.934 128.746 206.446 121.796C204.741 113.924 206.84 107.555 211.748 103.449Z" fill="white"/>
<path d="M259.739 94.2954C259.739 105.041 253.826 113.784 239.497 117.96L239.29 118.351L211.747 103.459L213.195 101.676L203.459 82.6482C213.383 69.9495 231.85 67.0252 238.936 72.4131C238.177 74.3259 238.867 77.4205 242.217 79.0229C244.543 80.1546 247.529 80.3248 249.303 79.2031C249.748 78.9343 250.12 78.5557 250.383 78.1024C250.647 77.6491 250.794 77.1355 250.81 76.6093C256.093 79.6638 259.758 88.0162 259.739 94.2954Z" fill="white"/>
<path d="M259.592 73.6748C257.27 75.1646 254.549 75.8822 251.807 75.7278C251.446 75.9856 251.115 76.2847 250.822 76.6192C250.114 77.3428 249.596 78.2344 249.314 79.213C247.54 80.3347 244.554 80.1644 242.228 79.0328C238.878 77.3903 238.188 74.3358 238.947 72.423C240.275 71.3876 241.24 69.944 241.696 68.3069C241.207 68.4182 240.698 68.4012 240.217 68.2575C239.736 68.1139 239.299 67.8483 238.947 67.4857C238.495 66.9226 238.178 66.26 238.022 65.5506C237.867 64.8412 237.876 64.1047 238.05 63.3997C238.152 62.9026 238.423 62.4582 238.817 62.1449C239.21 61.8315 239.699 61.6694 240.198 61.6872C240.564 61.7202 240.917 61.8455 241.223 62.0519C241.529 62.2583 241.78 62.5391 241.952 62.8689C242.486 62.2808 242.833 61.5441 242.951 60.7534C243.069 59.9628 242.951 59.1544 242.613 58.4324C244.712 58.202 245.569 55.7083 245.441 54.5967C246.786 55.5228 248.433 55.8819 250.033 55.5982C250.878 55.517 251.682 55.1907 252.35 54.658C253.017 54.1253 253.52 53.4087 253.798 52.5938C254.236 53.8359 255.021 54.9212 256.058 55.7163C257.094 56.5115 258.336 56.9821 259.632 57.0704C260.046 60.225 262.273 62.4183 262.716 65.0822C263.229 68.4972 262.312 71.9923 259.592 73.6748Z" fill="white"/>
<path d="M260.332 59.6544C259.965 58.8475 259.716 57.9906 259.593 57.1106C258.297 57.0224 257.055 56.5518 256.019 55.7567C254.983 54.9615 254.197 53.8762 253.759 52.634C253.481 53.449 252.979 54.1655 252.311 54.6982C251.644 55.2309 250.839 55.5573 249.995 55.6384C248.394 55.9222 246.747 55.5631 245.402 54.637C245.54 55.7486 244.673 58.2423 242.574 58.4726C242.912 59.1946 243.03 60.003 242.913 60.7937C242.795 61.5844 242.447 62.3211 241.914 62.9092C241.741 62.5794 241.491 62.2986 241.184 62.0922C240.878 61.8859 240.526 61.7605 240.16 61.7274C239.66 61.7097 239.171 61.8718 238.778 62.1851C238.385 62.4985 238.113 62.943 238.011 63.44C235.262 63.0594 232.857 60.0149 232.857 56.1793C232.857 52.3436 235.37 49.3192 238.622 49.6597C239.204 44.9828 244.358 41.5577 250.921 41.7881C258.243 42.0484 262.333 47.1459 262.993 51.3321C263.594 55.1077 262.234 58.4125 260.332 59.6544Z" fill="black"/>
<path d="M250.779 76.6196C250.762 77.1459 250.616 77.6593 250.352 78.1127C250.089 78.566 249.717 78.9446 249.271 79.2135C249.554 78.2349 250.072 77.3433 250.779 76.6196Z" fill="white"/>
<path d="M236.631 155.736H256.202" stroke="black" stroke-linejoin="bevel"/>
<path d="M221.107 108.557C215.618 112.693 216.042 118.962 219.885 121.486C223.729 124.009 236.234 129.097 242.305 130.97L247.587 155.776" stroke="black" stroke-linejoin="bevel"/>
<path d="M211.748 103.449L249.935 124.099L257.306 161.274H237.863L232.857 138.701C219.878 135.146 207.934 128.746 206.446 121.796C204.741 113.924 206.84 107.555 211.748 103.449Z" stroke="black" stroke-linejoin="bevel"/>
<path d="M250.545 62.1581C251.002 62.1581 251.372 61.7814 251.372 61.3168C251.372 60.8522 251.002 60.4756 250.545 60.4756C250.087 60.4756 249.717 60.8522 249.717 61.3168C249.717 61.7814 250.087 62.1581 250.545 62.1581Z" fill="black"/>
<path d="M257.662 61.6673C258.119 61.6673 258.49 61.2907 258.49 60.8261C258.49 60.3615 258.119 59.9849 257.662 59.9849C257.205 59.9849 256.834 60.3615 256.834 60.8261C256.834 61.2907 257.205 61.6673 257.662 61.6673Z" fill="black"/>
<path d="M256.635 57.9818C256.39 57.8659 256.125 57.8023 255.855 57.7949C255.585 57.7875 255.317 57.8365 255.067 57.9389C254.816 58.0412 254.589 58.1947 254.4 58.3898C254.21 58.585 254.062 58.8177 253.964 59.0734C253.304 61.0263 256.251 63.7202 257.522 64.221C258.409 64.5615 259.158 64.2911 259.493 64.8219C259.6 65.2003 259.557 65.6066 259.373 65.9531C259.189 66.2997 258.878 66.5588 258.507 66.6746" stroke="black" stroke-linejoin="bevel"/>
<path d="M254.014 68.0868C255.098 67.9965 257.492 68.3578 258.034 68.3177" stroke="black" stroke-linejoin="bevel"/>
<path d="M247.658 58.4832C249.101 58.2025 250.588 58.2643 252.004 58.6639" stroke="black" stroke-linejoin="bevel"/>
<path d="M238.011 63.3997C235.262 63.0191 232.857 59.9747 232.857 56.149C232.857 52.3234 235.37 49.2789 238.622 49.6194C239.204 44.9425 244.358 41.5174 250.921 41.7478C258.243 42.0082 262.333 47.1157 262.993 51.2919C263.594 55.1075 262.234 58.4124 260.332 59.6542" stroke="black" stroke-linejoin="bevel"/>
<path d="M238.908 72.423C240.236 71.3896 241.198 69.9448 241.647 68.3069C241.16 68.4164 240.653 68.3985 240.173 68.2548C239.694 68.1112 239.259 67.8466 238.908 67.4857C238.455 66.9226 238.139 66.26 237.983 65.5506C237.827 64.8412 237.837 64.1047 238.011 63.3997C238.113 62.9026 238.384 62.4582 238.777 62.1449C239.171 61.8315 239.66 61.6694 240.159 61.6872C240.525 61.7182 240.876 61.8429 241.181 62.0495C241.486 62.2562 241.735 62.5381 241.904 62.8689C242.438 62.2819 242.788 61.5457 242.907 60.755C243.027 59.9643 242.911 59.1553 242.574 58.4324C244.673 58.202 245.53 55.7083 245.402 54.5967C246.749 55.518 248.394 55.8766 249.994 55.5982C250.838 55.5123 251.639 55.1841 252.306 54.652C252.973 54.12 253.477 53.4061 253.759 52.5938C254.197 53.8359 254.982 54.9212 256.019 55.7163C257.055 56.5115 258.297 56.9821 259.593 57.0704C260.006 60.225 262.234 62.4183 262.677 65.0822C263.229 68.4371 262.312 71.9523 259.593 73.6348C257.271 75.1258 254.549 75.8435 251.807 75.6878C250.606 76.5341 249.713 77.7589 249.265 79.1729" stroke="black" stroke-linejoin="bevel"/>
<path d="M211.748 103.449L213.187 101.677" stroke="black" stroke-linejoin="bevel"/>
<path d="M239.499 117.95L239.291 118.342" stroke="black" stroke-linejoin="bevel"/>
<path d="M246.692 115.146C255.847 110.439 259.72 103.028 259.74 94.2953C259.74 88.0161 256.093 79.6637 250.782 76.6192C250.565 80.2746 245.638 80.7153 242.188 79.0328C238.739 77.3503 238.148 74.3359 238.907 72.423C232.679 67.666 217.552 69.4187 207.264 78.6022" stroke="black" stroke-linejoin="bevel"/>
<path d="M266.076 81.2464C226.244 84.9719 205.864 97.0998 190.343 114.175C179.848 125.722 161.646 162.406 139.681 162.406C131.028 162.406 122.849 158.45 113.625 151.921V149.297C128.042 133.944 139.533 116.098 139.533 93.845C139.533 62.8994 121.391 48.7786 104.539 48.7786C87.6878 48.7786 69.5355 62.8794 69.5355 93.845C69.5355 116.098 81.0359 133.904 95.4532 149.297V151.921C86.2293 158.45 76.7294 162.406 66.6777 162.406V173.493C82.7703 173.493 93.029 168.165 104.539 159.472C116.049 168.145 126.86 173.493 139.681 173.493C164.889 173.493 187.584 135.336 197.774 122.287C210.811 105.582 231.664 95.9982 267.2 92.2427L266.076 81.2464ZM104.539 143.338C91.2354 130.129 80.4446 112.703 80.4446 93.8851C80.4446 67.0755 95.5912 59.925 104.539 59.925C113.487 59.925 128.634 67.0755 128.634 93.8851C128.634 112.663 117.843 130.088 104.539 143.298V143.338Z" fill="black"/>
<path d="M242.305 100.725L233.317 104.24C233.317 104.24 226.527 89.6889 226.31 88.8977C225.956 87.6459 227.71 86.8948 228.459 87.6959C228.448 87.4434 228.515 87.1938 228.652 86.9826C228.789 86.7714 228.987 86.6094 229.22 86.5195C229.452 86.4297 229.707 86.4166 229.947 86.4822C230.187 86.5477 230.401 86.6886 230.558 86.8847C230.571 86.6459 230.655 86.4168 230.8 86.2276C230.944 86.0385 231.141 85.8983 231.365 85.8256C231.59 85.7529 231.83 85.7511 232.056 85.8204C232.281 85.8897 232.48 86.0269 232.627 86.2138C232.627 85.1222 234.017 84.6414 234.48 85.2123C235.033 86.0954 235.527 87.0155 235.958 87.9664C236.406 87.8033 236.897 87.8155 237.336 88.0007C237.775 88.1859 238.131 88.5307 238.333 88.9678C238.497 89.4169 238.522 89.9063 238.404 90.3701C238.286 90.8339 238.031 91.2497 237.673 91.5617L242.305 100.725Z" fill="white"/>
<path d="M233.317 104.24C233.317 104.24 226.527 89.6889 226.31 88.8977C225.956 87.6459 227.71 86.8948 228.459 87.6959C228.448 87.4434 228.515 87.1938 228.652 86.9826C228.789 86.7714 228.987 86.6094 229.22 86.5195C229.452 86.4297 229.707 86.4166 229.947 86.4822C230.187 86.5477 230.401 86.6886 230.558 86.8847C230.571 86.6459 230.655 86.4168 230.8 86.2276C230.944 86.0385 231.141 85.8983 231.365 85.8256C231.59 85.7529 231.83 85.7511 232.056 85.8204C232.281 85.8897 232.48 86.0269 232.627 86.2138C232.627 85.1222 234.017 84.6414 234.48 85.2123C235.4 86.7359 236.188 88.3375 236.835 89.9993" stroke="black" stroke-linejoin="bevel"/>
<path d="M235.939 87.9564C236.386 87.7939 236.875 87.8064 237.313 87.9917C237.75 88.1769 238.104 88.5215 238.305 88.9579C238.474 89.4054 238.503 89.8954 238.386 90.3601C238.27 90.8248 238.014 91.2412 237.654 91.5518L242.306 100.735" stroke="black" stroke-linejoin="bevel"/>
<path d="M244.622 105.622L242.306 100.725L233.318 104.24L239.517 117.96C241.998 117.259 244.407 116.316 246.711 115.146" stroke="black" stroke-linejoin="bevel"/>
<path d="M225.741 112.022C225.741 112.382 225.682 112.693 225.643 112.903C225.608 113.111 225.516 113.305 225.378 113.463C225.241 113.62 225.063 113.736 224.864 113.796C224.665 113.857 224.454 113.859 224.254 113.804C224.053 113.749 223.872 113.638 223.731 113.484C223.677 113.722 223.56 113.941 223.393 114.116C223.227 114.292 223.016 114.418 222.784 114.481C222.551 114.544 222.307 114.541 222.076 114.473C221.845 114.405 221.637 114.274 221.474 114.095C221.306 115.096 219.818 115.287 219.198 114.496C219.097 114.736 218.927 114.941 218.71 115.082C218.493 115.223 218.239 115.295 217.982 115.287C217.724 115.28 217.475 115.193 217.266 115.04C217.058 114.886 216.9 114.672 216.813 114.425C216.665 113.935 216.389 108.647 215.896 107.315C215.404 105.983 212.674 100.976 212.674 100.976C215.069 100.915 220.173 99.4133 221.898 98.0413L225.337 106.384C225.823 106.469 226.27 106.71 226.613 107.069C226.957 107.429 227.179 107.89 227.249 108.387C227.613 110.56 227.219 111.621 225.741 112.022Z" fill="white"/>
<path d="M206.881 89.6485L213.405 102.397L222.668 99.9637L217.494 87.1047L206.881 89.6485Z" fill="white"/>
<path d="M207.263 78.6023C205.874 79.8137 204.601 81.1549 203.459 82.6082L212.673 100.925C215.078 100.865 220.172 99.3629 221.897 97.9909L217.108 84.9717" stroke="black" stroke-linejoin="bevel"/>
<path d="M212.674 100.975C212.674 100.975 215.404 105.983 215.896 107.315C216.389 108.647 216.665 113.934 216.813 114.425C216.9 114.672 217.058 114.886 217.266 115.039C217.475 115.193 217.724 115.28 217.982 115.287C218.239 115.295 218.493 115.223 218.71 115.082C218.927 114.941 219.097 114.736 219.198 114.495C219.818 115.286 221.306 115.136 221.474 114.095C221.637 114.274 221.845 114.405 222.076 114.473C222.307 114.541 222.551 114.543 222.784 114.48C223.016 114.418 223.227 114.292 223.393 114.116C223.56 113.94 223.677 113.722 223.731 113.484C223.872 113.638 224.052 113.749 224.251 113.805C224.451 113.86 224.662 113.858 224.86 113.799C225.059 113.74 225.237 113.626 225.375 113.469C225.514 113.313 225.606 113.12 225.643 112.913C225.789 111.566 225.868 110.212 225.879 108.857" stroke="black" stroke-linejoin="bevel"/>
<path d="M221.9 98.0413L225.34 106.384C225.826 106.469 226.272 106.71 226.616 107.069C226.959 107.429 227.182 107.89 227.252 108.387C227.616 110.54 227.251 111.631 225.744 112.032" stroke="black" stroke-linejoin="bevel"/>
</g>
<defs>
<clipPath id="clip0_321_1075">
<rect width="201.645" height="132.225" fill="white" transform="translate(66.6777 41.3875)"/>
</clipPath>
</defs>
</svg>
