<svg width="623" height="400" viewBox="0 0 623 400" fill="none" xmlns="http://www.w3.org/2000/svg">
<rect width="623" height="400" fill="#C0FF00"/>
<g clip-path="url(#clip0_321_276)">
<path d="M340.694 274.333L310.254 285.214L319.161 315.268C319.875 317.409 321.252 319.257 323.085 320.537C324.918 321.816 327.11 322.458 329.332 322.367H350.646C350.646 318.64 349.143 314.541 347.237 313.293C345.716 312.305 341.592 312.697 340.548 311.933C339.503 311.169 338.569 305.914 339.503 303.474C340.438 301.033 345.533 297.586 348.117 296.99L340.694 274.333Z" fill="white"/>
<path d="M340.694 274.333L310.254 285.214L319.161 315.268C319.875 317.409 321.252 319.257 323.085 320.537C324.918 321.816 327.11 322.458 329.332 322.367H350.646C350.646 318.64 349.143 314.541 347.237 313.293C345.716 312.305 341.592 312.697 340.548 311.933C339.503 311.169 338.569 305.914 339.503 303.474C340.438 301.033 345.533 297.586 348.117 296.99L340.694 274.333Z" stroke="black" stroke-width="1.5" stroke-linejoin="bevel"/>
<path d="M331.566 294.4C334.39 294.4 336.679 292.072 336.679 289.201C336.679 286.33 334.39 284.003 331.566 284.003C328.742 284.003 326.453 286.33 326.453 289.201C326.453 292.072 328.742 294.4 331.566 294.4Z" stroke="black" stroke-width="1.5" stroke-linejoin="bevel"/>
<path d="M316.102 283.127L324.624 311.821C325.631 315.007 328.069 316.423 331.569 316.423L349.603 316.795" stroke="black" stroke-width="1.5" stroke-linejoin="bevel"/>
<path d="M385.904 222.722L368.201 259.632L338.512 273.644L349.599 308.374L393.968 288.549L420.743 250.726L385.904 222.722Z" fill="white"/>
<path d="M385.904 222.722L368.201 259.632L338.512 273.644L349.599 308.374L393.968 288.549L420.743 250.726L385.904 222.722Z" stroke="black" stroke-width="1.5" stroke-linejoin="bevel"/>
<path d="M348.684 268.836L360.321 303.585" stroke="black" stroke-width="1.5" stroke-linejoin="bevel"/>
<path d="M403.759 237.069L381.566 274.408L354.516 286.221" stroke="black" stroke-width="1.5" stroke-linejoin="bevel"/>
<path d="M443.652 294.567V322.366H498.357C498.357 318.249 496.891 313.665 493.757 311.671C491.192 310.05 479.096 308.709 476.145 307.405C471.454 305.299 469.584 301.722 469.584 294.567H443.652Z" fill="white"/>
<path d="M455.328 312.529C458.152 312.529 460.441 310.202 460.441 307.331C460.441 304.46 458.152 302.133 455.328 302.133C452.504 302.133 450.215 304.46 450.215 307.331C450.215 310.202 452.504 312.529 455.328 312.529Z" stroke="black" stroke-width="1.5" stroke-linejoin="bevel"/>
<path d="M443.652 294.567V322.366H498.357C498.357 318.249 496.891 313.665 493.757 311.671C491.192 310.05 479.096 308.709 476.145 307.405C471.454 305.299 469.584 301.722 469.584 294.567H443.652Z" stroke="black" stroke-width="1.5" stroke-linejoin="bevel"/>
<path d="M443.652 317.131H497.569" stroke="black" stroke-width="1.5" stroke-linejoin="bevel"/>
<path d="M393.787 192.463L464.803 230.883L478.511 300.045H442.353L433.043 258.048C408.907 251.434 386.695 239.528 383.927 226.597C380.757 211.952 384.66 200.103 393.787 192.463Z" fill="white"/>
<path d="M483.039 175.434C483.039 195.426 472.043 211.692 445.396 219.461L445.011 220.188L393.788 192.482L396.482 189.165L378.375 153.764C396.83 130.139 431.174 124.698 444.351 134.722C442.94 138.281 444.223 144.038 450.454 147.02C454.779 149.125 460.332 149.442 463.631 147.355C464.459 146.855 465.15 146.15 465.64 145.307C466.13 144.464 466.403 143.508 466.435 142.529C476.258 148.212 483.075 163.751 483.039 175.434Z" fill="white"/>
<path d="M482.764 137.07C478.445 139.841 473.385 141.176 468.286 140.889C467.614 141.369 466.999 141.925 466.453 142.548C465.138 143.894 464.174 145.553 463.649 147.373C460.35 149.46 454.797 149.143 450.472 147.038C444.241 143.982 442.958 138.299 444.369 134.741C446.84 132.814 448.634 130.129 449.483 127.083C448.573 127.29 447.626 127.258 446.732 126.991C445.837 126.724 445.024 126.23 444.369 125.555C443.528 124.508 442.94 123.275 442.65 121.955C442.361 120.635 442.378 119.265 442.702 117.953C442.891 117.028 443.396 116.202 444.127 115.619C444.858 115.036 445.768 114.734 446.697 114.767C447.378 114.829 448.033 115.062 448.602 115.446C449.172 115.83 449.638 116.352 449.959 116.966C450.951 115.872 451.598 114.501 451.816 113.03C452.035 111.559 451.816 110.055 451.187 108.712C455.091 108.283 456.685 103.644 456.447 101.576C458.948 103.299 462.01 103.967 464.987 103.439C466.558 103.288 468.054 102.681 469.295 101.689C470.536 100.698 471.471 99.3653 471.988 97.8491C472.803 100.16 474.263 102.179 476.191 103.659C478.118 105.138 480.428 106.014 482.837 106.178C483.607 112.047 487.749 116.127 488.573 121.083C489.526 127.437 487.822 133.94 482.764 137.07Z" fill="white"/>
<path d="M484.134 110.985C483.452 109.484 482.989 107.89 482.759 106.253C480.35 106.088 478.04 105.213 476.113 103.734C474.185 102.254 472.725 100.235 471.91 97.924C471.393 99.4402 470.458 100.773 469.217 101.764C467.976 102.755 466.48 103.363 464.909 103.514C461.932 104.041 458.87 103.373 456.369 101.65C456.625 103.719 455.013 108.358 451.109 108.787C451.738 110.13 451.957 111.634 451.739 113.105C451.52 114.576 450.873 115.947 449.881 117.041C449.56 116.427 449.094 115.905 448.524 115.521C447.955 115.137 447.3 114.903 446.619 114.842C445.691 114.809 444.78 115.111 444.049 115.694C443.318 116.277 442.813 117.103 442.624 118.028C437.511 117.32 433.039 111.656 433.039 104.52C433.039 97.3837 437.712 91.7568 443.76 92.3903C444.841 83.6891 454.426 77.317 466.632 77.7455C480.248 78.2299 487.854 87.7136 489.082 95.5019C490.2 102.526 487.671 108.675 484.134 110.985Z" fill="black"/>
<path d="M466.378 142.548C466.347 143.527 466.074 144.482 465.584 145.326C465.094 146.169 464.403 146.874 463.574 147.374C464.099 145.553 465.063 143.894 466.378 142.548Z" fill="white"/>
<path d="M440.062 289.742H476.459" stroke="black" stroke-width="1.5" stroke-linejoin="bevel"/>
<path d="M411.196 201.966C400.988 209.661 401.776 221.325 408.923 226.02C416.07 230.715 439.327 240.181 450.616 243.665L460.439 289.817" stroke="black" stroke-width="1.5" stroke-linejoin="bevel"/>
<path d="M393.787 192.463L464.803 230.883L478.511 300.045H442.353L433.043 258.048C408.907 251.434 386.695 239.528 383.927 226.597C380.757 211.952 384.66 200.103 393.787 192.463Z" stroke="black" stroke-width="1.5" stroke-linejoin="bevel"/>
<path d="M465.938 115.643C466.788 115.643 467.477 114.942 467.477 114.078C467.477 113.213 466.788 112.513 465.938 112.513C465.088 112.513 464.398 113.213 464.398 114.078C464.398 114.942 465.088 115.643 465.938 115.643Z" fill="black"/>
<path d="M479.168 114.73C480.019 114.73 480.708 114.029 480.708 113.165C480.708 112.301 480.019 111.6 479.168 111.6C478.318 111.6 477.629 112.301 477.629 113.165C477.629 114.029 478.318 114.73 479.168 114.73Z" fill="black"/>
<path d="M477.265 107.873C476.81 107.658 476.316 107.539 475.814 107.526C475.313 107.512 474.814 107.603 474.348 107.793C473.882 107.984 473.46 108.269 473.108 108.632C472.755 108.995 472.479 109.428 472.298 109.904C471.07 113.537 476.55 118.549 478.914 119.481C480.563 120.114 481.956 119.611 482.579 120.599C482.779 121.303 482.699 122.059 482.357 122.704C482.014 123.348 481.436 123.83 480.747 124.046" stroke="black" stroke-width="1.5" stroke-linejoin="bevel"/>
<path d="M472.391 126.673C474.407 126.506 478.86 127.176 479.868 127.102" stroke="black" stroke-width="1.5" stroke-linejoin="bevel"/>
<path d="M460.57 108.805C463.254 108.284 466.02 108.399 468.652 109.14" stroke="black" stroke-width="1.5" stroke-linejoin="bevel"/>
<path d="M442.628 117.953C437.515 117.245 433.043 111.581 433.043 104.463C433.043 97.3458 437.716 91.6817 443.764 92.3152C444.845 83.614 454.43 77.2418 466.636 77.6703C480.252 78.1547 487.858 87.6572 489.086 95.4268C490.204 102.526 487.675 108.674 484.138 110.985" stroke="black" stroke-width="1.5" stroke-linejoin="bevel"/>
<path d="M444.295 134.741C446.766 132.818 448.555 130.13 449.39 127.083C448.483 127.287 447.54 127.253 446.649 126.986C445.758 126.719 444.948 126.227 444.295 125.555C443.454 124.508 442.865 123.275 442.576 121.955C442.286 120.635 442.304 119.265 442.628 117.953C442.817 117.028 443.322 116.202 444.053 115.619C444.784 115.036 445.694 114.734 446.623 114.767C447.302 114.825 447.956 115.057 448.523 115.441C449.091 115.826 449.553 116.35 449.867 116.966C450.861 115.874 451.511 114.504 451.733 113.033C451.956 111.562 451.739 110.057 451.113 108.712C455.016 108.283 456.611 103.644 456.373 101.576C458.878 103.289 461.936 103.957 464.913 103.439C466.481 103.279 467.973 102.668 469.212 101.678C470.452 100.689 471.389 99.3604 471.914 97.8491C472.729 100.16 474.189 102.179 476.116 103.659C478.043 105.138 480.353 106.014 482.763 106.178C483.533 112.047 487.674 116.127 488.499 121.083C489.525 127.325 487.821 133.865 482.763 136.995C478.445 139.769 473.384 141.104 468.285 140.815C466.051 142.389 464.389 144.668 463.557 147.299" stroke="black" stroke-width="1.5" stroke-linejoin="bevel"/>
<path d="M393.785 192.464L396.461 189.166" stroke="black" stroke-width="1.5" stroke-linejoin="bevel"/>
<path d="M445.397 219.443L445.012 220.169" stroke="black" stroke-width="1.5" stroke-linejoin="bevel"/>
<path d="M458.774 214.226C475.8 205.468 483.002 191.681 483.039 175.433C483.039 163.751 476.258 148.212 466.38 142.548C465.976 149.348 456.813 150.168 450.399 147.038C443.985 143.908 442.885 138.3 444.296 134.741C432.714 125.891 404.582 129.151 385.449 146.237" stroke="black" stroke-width="1.5" stroke-linejoin="bevel"/>
<path d="M494.821 151.156C420.745 158.087 382.846 180.651 353.981 212.419C334.463 233.901 300.613 302.151 259.764 302.151C243.673 302.151 228.462 294.791 211.308 282.643V277.761C238.12 249.198 259.489 215.996 259.489 174.595C259.489 117.022 225.75 90.7507 194.411 90.7507C163.072 90.7507 129.315 116.985 129.315 174.595C129.315 215.996 150.702 249.124 177.514 277.761V282.643C160.36 294.791 142.693 302.151 124 302.151V322.777C153.927 322.777 173.005 312.864 194.411 296.692C215.817 312.827 235.921 322.777 259.764 322.777C306.643 322.777 348.85 251.788 367.799 227.511C392.046 196.432 430.825 178.601 496.911 171.614L494.821 151.156ZM194.411 266.675C169.67 242.1 149.602 209.68 149.602 174.67C149.602 124.792 177.77 111.488 194.411 111.488C211.052 111.488 239.22 124.792 239.22 174.67C239.22 209.605 219.152 242.025 194.411 266.601V266.675Z" fill="black"/>
<path d="M450.616 187.396L433.902 193.936C433.902 193.936 421.275 166.863 420.872 165.391C420.212 163.062 423.475 161.665 424.867 163.155C424.847 162.686 424.973 162.221 425.227 161.828C425.481 161.435 425.85 161.134 426.283 160.967C426.715 160.799 427.188 160.775 427.635 160.897C428.082 161.019 428.479 161.281 428.771 161.646C428.796 161.202 428.953 160.775 429.221 160.424C429.489 160.072 429.856 159.811 430.273 159.676C430.69 159.54 431.138 159.537 431.557 159.666C431.976 159.795 432.346 160.05 432.62 160.398C432.62 158.367 435.204 157.473 436.065 158.535C437.094 160.178 438.012 161.889 438.814 163.658C439.646 163.355 440.56 163.378 441.377 163.722C442.193 164.067 442.854 164.708 443.231 165.522C443.536 166.357 443.582 167.268 443.362 168.131C443.142 168.993 442.668 169.767 442.003 170.347L450.616 187.396Z" fill="white"/>
<path d="M433.902 193.936C433.902 193.936 421.275 166.863 420.872 165.391C420.212 163.062 423.475 161.665 424.867 163.155C424.847 162.686 424.973 162.221 425.227 161.828C425.481 161.435 425.85 161.134 426.283 160.967C426.715 160.799 427.188 160.775 427.635 160.897C428.082 161.019 428.479 161.281 428.771 161.646C428.796 161.202 428.953 160.775 429.221 160.424C429.489 160.072 429.856 159.811 430.273 159.676C430.69 159.54 431.138 159.537 431.557 159.666C431.976 159.795 432.346 160.05 432.62 160.398C432.62 158.367 435.204 157.473 436.065 158.535C437.775 161.369 439.241 164.349 440.445 167.441" stroke="black" stroke-width="1.5" stroke-linejoin="bevel"/>
<path d="M438.777 163.64C439.607 163.338 440.518 163.361 441.331 163.706C442.145 164.05 442.803 164.691 443.176 165.503C443.491 166.336 443.544 167.247 443.327 168.112C443.111 168.976 442.635 169.751 441.966 170.329L450.616 187.415" stroke="black" stroke-width="1.5" stroke-linejoin="bevel"/>
<path d="M454.923 196.506L450.616 187.395L433.902 193.935L445.43 219.461C450.044 218.156 454.524 216.403 458.808 214.225" stroke="black" stroke-width="1.5" stroke-linejoin="bevel"/>
<path d="M419.809 208.413C419.809 209.084 419.699 209.661 419.626 210.052C419.561 210.439 419.39 210.799 419.135 211.093C418.879 211.387 418.547 211.602 418.178 211.714C417.808 211.826 417.415 211.831 417.043 211.729C416.67 211.626 416.334 211.42 416.07 211.133C415.97 211.576 415.754 211.982 415.443 212.309C415.133 212.636 414.741 212.87 414.309 212.987C413.877 213.104 413.422 213.099 412.993 212.973C412.564 212.846 412.177 212.603 411.874 212.27C411.562 214.133 408.795 214.487 407.64 213.015C407.453 213.463 407.137 213.844 406.733 214.106C406.33 214.369 405.858 214.502 405.379 214.488C404.9 214.474 404.436 214.313 404.048 214.027C403.661 213.741 403.367 213.343 403.205 212.884C402.93 211.972 402.417 202.134 401.501 199.656C400.584 197.178 395.508 187.862 395.508 187.862C399.961 187.75 409.454 184.955 412.662 182.402L419.058 197.923C419.961 198.083 420.792 198.529 421.431 199.199C422.069 199.868 422.483 200.726 422.613 201.649C423.291 205.693 422.558 207.668 419.809 208.413Z" fill="white"/>
<path d="M384.734 166.788L396.867 190.506L414.094 185.979L404.472 162.055L384.734 166.788Z" fill="white"/>
<path d="M385.449 146.237C382.867 148.491 380.498 150.986 378.375 153.69L395.51 187.768C399.982 187.656 409.457 184.861 412.664 182.309L403.757 158.087" stroke="black" stroke-width="1.5" stroke-linejoin="bevel"/>
<path d="M395.508 187.861C395.508 187.861 400.584 197.177 401.501 199.655C402.417 202.134 402.93 211.971 403.205 212.884C403.367 213.343 403.661 213.741 404.048 214.027C404.436 214.313 404.9 214.474 405.379 214.488C405.858 214.502 406.33 214.369 406.733 214.106C407.137 213.843 407.453 213.463 407.64 213.015C408.795 214.487 411.562 214.207 411.874 212.269C412.177 212.603 412.564 212.846 412.993 212.973C413.422 213.099 413.877 213.104 414.309 212.987C414.741 212.87 415.133 212.636 415.443 212.309C415.754 211.982 415.97 211.576 416.07 211.133C416.332 211.419 416.668 211.626 417.039 211.73C417.41 211.833 417.802 211.83 418.171 211.72C418.54 211.609 418.872 211.397 419.129 211.105C419.386 210.814 419.558 210.456 419.626 210.071C419.898 207.565 420.045 205.046 420.066 202.525" stroke="black" stroke-width="1.5" stroke-linejoin="bevel"/>
<path d="M412.664 182.402L419.06 197.923C419.964 198.083 420.795 198.529 421.433 199.199C422.072 199.868 422.486 200.726 422.616 201.649C423.294 205.655 422.615 207.686 419.812 208.431" stroke="black" stroke-width="1.5" stroke-linejoin="bevel"/>
</g>
<defs>
<clipPath id="clip0_321_276">
<rect width="375" height="246" fill="white" transform="translate(124 77)"/>
</clipPath>
</defs>
</svg>
